#!OML:ASF F:\VICON\USERDATA\INSTALL\rory3\rory3.ASF
:FULLY-SPECIFIED
:DEGREES
3467
root -0.0721769 17.5366 -5.19792 -0.355906 46.9904 -1.54819
lowerback 5.93374 -4.32257 -4.65319
upperback 0.416993 -6.04206 0.638286
thorax -2.33448 -2.96142 3.70063
lowerneck -8.24691 -18.2418 -14.0829
upperneck 9.9743 -24.4548 11.2319
head 7.46517 -11.7076 2.91504
rclavicle -1.35024e-013 8.34896e-015
rhumerus 26.8782 -26.8855 -28.1242
rradius 40.2095
rwrist 26.6278
rhand -29.2038 -15.7993
rfingers 7.12502
rthumb -2.54849 -45.7639
lclavicle -1.35024e-013 8.34896e-015
lhumerus -37.234 11.27 70.7934
lradius 34.5812
lwrist -7.1921
lhand -13.4378 30.9836
lfingers 7.12502
lthumb 12.6712 -1019.42
rfemur -23.9503 12.7924 12.819
rtibia 34.5101
rfoot -8.81214 1.74612
rtoes 2.08183
lfemur 1.77459 -3.76704 -18.9837
ltibia 26.9994
lfoot -21.623 0.316533
ltoes -6.51939
3468
root -0.0834278 17.5423 -5.24605 -0.247499 46.7668 -1.52949
lowerback 5.92261 -4.30095 -4.75233
upperback 0.440275 -6.01904 0.615233
thorax -2.29869 -2.95044 3.72778
lowerneck -8.30086 -18.2273 -14.0759
upperneck 10.0177 -24.4223 11.1696
head 7.47476 -11.693 2.8957
rclavicle -1.50331e-014 -9.14409e-015
rhumerus 25.7266 -25.9086 -27.7635
rradius 41.6029
rwrist 26.0848
rhand -29.3047 -15.2124
rfingers 7.12502
rthumb -2.64601 -45.1758
lclavicle -1.50331e-014 -9.14409e-015
lhumerus -37.0743 11.1385 71.0293
lradius 34.6098
lwrist -7.09769
lhand -13.3279 30.9077
lfingers 7.12502
lthumb 12.7771 -1019.5
rfemur -24.1123 12.7116 12.6744
rtibia 34.1749
rfoot -8.41176 1.85954
rtoes 0.855493
lfemur 1.47838 -3.68698 -19.1164
ltibia 27.1522
lfoot -21.6574 0.423137
ltoes -6.00108
3469
root -0.0936148 17.5469 -5.29136 -0.00507936 46.5303 -1.3155
lowerback 5.86294 -4.28313 -5.0363
upperback 0.480632 -6.01068 0.558683
thorax -2.20149 -2.94736 3.81755
lowerneck -8.29656 -18.1806 -14.2006
upperneck 10.0493 -24.3676 11.2971
head 7.511 -11.6621 2.95415
rclavicle -1.07095e-014 -5.56597e-015
rhumerus 24.6739 -25.0069 -27.6213
rradius 43.0267
rwrist 25.804
rhand -29.387 -14.4921
rfingers 7.12502
rthumb -2.72545 -44.4544
lclavicle -1.07095e-014 -5.56597e-015
lhumerus -36.9202 9.38989 72.5155
lradius 35.401
lwrist -2.2644
lhand -17.8363 34.0578
lfingers 7.12502
lthumb 8.42834 -1016.13
rfemur -24.2332 12.5848 12.3854
rtibia 33.8055
rfoot -7.97505 2.09536
rtoes 0.188541
lfemur 1.19457 -3.47651 -19.3773
ltibia 27.3142
lfoot -21.6502 0.55221
ltoes -6.14317
3470
root -0.106218 17.5494 -5.33813 0.0345276 46.2095 -1.32142
lowerback 5.9162 -4.23638 -5.14993
upperback 0.468315 -5.96045 0.49763
thorax -2.24405 -2.91956 3.82003
lowerneck -8.16403 -18.109 -14.2287
upperneck 10.0885 -24.2963 11.3501
head 7.50454 -11.6316 2.99537
rclavicle 3.32964e-015 -5.1684e-015
rhumerus 23.4386 -23.9349 -27.5341
rradius 44.5854
rwrist 25.5137
rhand -29.4929 -14.0294
rfingers 7.12502
rthumb -2.8277 -43.9904
lclavicle 3.32964e-015 -5.1684e-015
lhumerus -36.9567 11.7167 70.7452
lradius 34.4234
lwrist -9.32334
lhand -9.71788 26.6645
lfingers 7.12502
lthumb 16.2553 -1024
rfemur -24.3268 12.597 12.2651
rtibia 33.4003
rfoot -7.49876 2.28648
rtoes 0.276406
lfemur 0.93762 -3.25349 -19.4771
ltibia 27.4936
lfoot -21.7371 0.708787
ltoes -6.38974
3471
root -0.123027 17.5514 -5.38812 -0.161731 45.9153 -1.54644
lowerback 6.12955 -4.18012 -5.10303
upperback 0.454122 -5.89507 0.472071
thorax -2.39183 -2.88212 3.78418
lowerneck -8.06282 -18.0552 -14.2049
upperneck 10.135 -24.2391 11.3236
head 7.48982 -11.6099 3.00266
rclavicle -4.47266e-015 1.19271e-014
rhumerus 22.0615 -22.8123 -27.4534
rradius 46.3229
rwrist 25.1234
rhand -29.667 -13.7338
rfingers 7.12502
rthumb -2.99587 -43.6925
lclavicle -4.47266e-015 1.19271e-014
lhumerus -37.0541 11.2891 70.9239
lradius 34.724
lwrist -8.90809
lhand -9.69515 26.3385
lfingers 7.12502
lthumb 16.2772 -1024.32
rfemur -24.3229 12.7299 12.3202
rtibia 32.9815
rfoot -7.14373 2.32678
rtoes 0.175585
lfemur 0.742085 -3.16212 -19.4224
ltibia 27.682
lfoot -21.8317 0.926068
ltoes -6.43791
3472
root -0.13624 17.5536 -5.43924 -0.244741 45.7169 -1.74179
lowerback 6.23597 -4.16055 -5.04861
upperback 0.425571 -5.87201 0.471486
thorax -2.48863 -2.86744 3.76332
lowerneck -7.92804 -18.0169 -14.2567
upperneck 10.112 -24.1949 11.3275
head 7.46166 -11.5975 3.03
rclavicle -3.86388e-014 -1.19271e-015
rhumerus 20.7434 -21.7222 -27.4885
rradius 48.0695
rwrist 24.8374
rhand -29.9454 -13.2283
rfingers 7.12502
rthumb -3.26472 -43.183
lclavicle -3.86388e-014 -1.19271e-015
lhumerus -37.097 10.8798 71.2349
lradius 35.0299
lwrist -8.40204
lhand -10.0527 26.5311
lfingers 7.12502
lthumb 15.9329 -1024.1
rfemur -24.3482 12.6802 12.334
rtibia 32.5108
rfoot -6.79121 2.478
rtoes 0.255674
lfemur 0.449212 -3.20242 -19.4166
ltibia 27.8665
lfoot -21.8349 1.25324
ltoes -6.83319
3473
root -0.14601 17.5596 -5.48975 -0.175696 45.531 -1.77128
lowerback 6.24885 -4.14706 -5.10607
upperback 0.434802 -5.85899 0.446388
thorax -2.48446 -2.8606 3.76896
lowerneck -7.92953 -18.003 -14.2658
upperneck 10.1652 -24.1752 11.2998
head 7.47424 -11.5895 3.02432
rclavicle -1.023e-013 -2.38542e-015
rhumerus 19.4487 -20.6628 -27.6287
rradius 49.8312
rwrist 24.5475
rhand -30.2565 -12.6136
rfingers 7.12502
rthumb -3.56514 -42.5635
lclavicle -1.023e-013 -2.38542e-015
lhumerus -36.9764 10.5757 71.6321
lradius 35.2464
lwrist -8.07549
lhand -10.5691 27.4855
lfingers 7.12502
lthumb 15.4356 -1023.11
rfemur -24.3979 12.5174 12.2222
rtibia 32.008
rfoot -6.32588 2.6729
rtoes 0.0906717
lfemur 0.16291 -3.18237 -19.5306
ltibia 27.9799
lfoot -21.8368 1.44237
ltoes -6.68301
3474
root -0.158246 17.5668 -5.53693 -0.261899 45.315 -1.9431
lowerback 6.308 -4.10496 -5.0984
upperback 0.452007 -5.80536 0.43159
thorax -2.50726 -2.83343 3.7505
lowerneck -7.9029 -17.9799 -14.2507
upperneck 10.2543 -24.1518 11.2607
head 7.4891 -11.5803 3.01459
rclavicle 4.39811e-014 -4.77083e-015
rhumerus 17.9973 -19.5363 -27.729
rradius 51.6704
rwrist 24.0547
rhand -30.5307 -11.7798
rfingers 7.12502
rthumb -3.82996 -41.7251
lclavicle 4.39811e-014 -4.77083e-015
lhumerus -36.7601 10.7137 71.7461
lradius 35.1574
lwrist -8.43907
lhand -10.608 27.4516
lfingers 7.12502
lthumb 15.3981 -1023.14
rfemur -24.418 12.5125 12.2308
rtibia 31.5214
rfoot -5.87935 2.70971
rtoes 0.0885011
lfemur -0.00707113 -3.08643 -19.5126
ltibia 27.9853
lfoot -21.8415 1.61934
ltoes -6.52305
3475
root -0.171186 17.5749 -5.58208 -0.325271 45.1288 -2.07618
lowerback 6.36258 -4.08611 -5.0889
upperback 0.463245 -5.78351 0.378146
thorax -2.53472 -2.8219 3.69311
lowerneck -7.80278 -17.8891 -14.271
upperneck 10.2754 -24.0549 11.349
head 7.48258 -11.534 3.06745
rclavicle 4.01048e-014 1.66979e-014
rhumerus 16.5516 -18.4309 -28.0272
rradius 53.5525
rwrist 23.6391
rhand -30.8957 -11.2483
rfingers 7.12502
rthumb -4.18241 -41.1869
lclavicle 4.01048e-014 1.66979e-014
lhumerus -36.5931 10.8379 71.7439
lradius 35.1172
lwrist -8.67833
lhand -10.7623 27.8421
lfingers 7.12502
lthumb 15.2495 -1022.74
rfemur -24.4435 12.5597 12.1983
rtibia 31.0807
rfoot -5.48767 2.77669
rtoes 0.248294
lfemur -0.127255 -2.95589 -19.518
ltibia 27.9066
lfoot -21.8098 1.82923
ltoes -6.54043
3476
root -0.183624 17.5756 -5.62597 -0.154968 44.9537 -2.02221
lowerback 6.33749 -4.04304 -5.16135
upperback 0.428206 -5.73388 0.271744
thorax -2.56591 -2.79482 3.6201
lowerneck -7.73156 -17.8546 -14.3358
upperneck 10.3233 -24.0393 11.4898
head 7.51201 -11.5221 3.12233
rclavicle 1.64494e-014 1.66979e-014
rhumerus 14.9368 -17.2791 -28.3393
rradius 55.5513
rwrist 23.2668
rhand -31.2338 -11.098
rfingers 7.12502
rthumb -4.50892 -41.03
lclavicle 1.64494e-014 1.66979e-014
lhumerus -36.5173 10.7007 71.8431
lradius 35.2892
lwrist -8.57309
lhand -11.0785 28.6078
lfingers 7.12502
lthumb 14.9449 -1021.95
rfemur -24.5891 12.5516 11.984
rtibia 30.671
rfoot -5.09413 2.88163
rtoes 1.08016
lfemur -0.372281 -2.58457 -19.6727
ltibia 27.8022
lfoot -21.7231 2.21337
ltoes -7.98798
